<svg width="8" height="12" viewBox="0 0 8 12" fill="none" xmlns="http://www.w3.org/2000/svg">
<path d="M3.11719 7.64453H2.39062H2.05664C1.82227 7.64453 1.60547 7.59961 1.40625 7.50977C1.20703 7.41602 1.0332 7.29297 0.884766 7.14062C0.740234 6.98438 0.626953 6.80469 0.544922 6.60156C0.462891 6.39844 0.421875 6.18359 0.421875 5.95703C0.421875 5.73438 0.464844 5.52539 0.550781 5.33008C0.636719 5.13477 0.751953 4.96484 0.896484 4.82031C1.04492 4.67188 1.21875 4.55664 1.41797 4.47461C1.61719 4.38867 1.83008 4.3457 2.05664 4.3457H4.08984C4.23047 4.3457 4.35156 4.38867 4.45312 4.47461C4.55469 4.56055 4.60547 4.68555 4.60547 4.84961C4.60547 4.92383 4.5918 4.99414 4.56445 5.06055C4.54102 5.12305 4.50586 5.17969 4.45898 5.23047C4.41602 5.27734 4.36523 5.31445 4.30664 5.3418C4.24805 5.36914 4.18555 5.38281 4.11914 5.38281H4.08984H2.0625C1.97656 5.38281 1.89648 5.40039 1.82227 5.43555C1.75195 5.4668 1.68945 5.51172 1.63477 5.57031C1.58008 5.625 1.53711 5.68945 1.50586 5.76367C1.47461 5.83398 1.45898 5.91016 1.45898 5.99219C1.45898 6.08203 1.47461 6.16406 1.50586 6.23828C1.53711 6.3125 1.58008 6.37695 1.63477 6.43164C1.69336 6.48242 1.75781 6.52344 1.82812 6.55469C1.90234 6.58594 1.98047 6.60156 2.0625 6.60156H2.40234H3.24023C3.47852 6.60156 3.69922 6.64844 3.90234 6.74219C4.10547 6.83203 4.2793 6.95508 4.42383 7.11133C4.57227 7.26758 4.6875 7.44922 4.76953 7.65625C4.85547 7.86328 4.89844 8.08008 4.89844 8.30664C4.89844 8.53711 4.85547 8.75586 4.76953 8.96289C4.6875 9.16602 4.57227 9.3457 4.42383 9.50195C4.27539 9.6543 4.09766 9.77539 3.89062 9.86523C3.6875 9.95508 3.4668 10 3.22852 10H0.796875C0.660156 10 0.546875 9.95117 0.457031 9.85352C0.367188 9.75586 0.322266 9.62891 0.322266 9.47266C0.322266 9.31641 0.367188 9.19336 0.457031 9.10352C0.546875 9.01367 0.660156 8.96875 0.796875 8.96875H3.14062C3.22656 8.96875 3.3125 8.95508 3.39844 8.92773C3.48438 8.89648 3.5625 8.85156 3.63281 8.79297C3.70312 8.73438 3.75977 8.66406 3.80273 8.58203C3.8457 8.49609 3.86719 8.39648 3.86719 8.2832C3.86719 8.17383 3.8457 8.08008 3.80273 8.00195C3.76367 7.92383 3.70898 7.85938 3.63867 7.80859C3.57227 7.75781 3.49609 7.71875 3.41016 7.69141C3.32422 7.66406 3.23633 7.64844 3.14648 7.64453H3.13477H3.11719Z" fill="white"/>
<path d="M5.92188 3.42969H6.40625H6.62891C6.78516 3.42969 6.92969 3.39974 7.0625 3.33984C7.19531 3.27734 7.3112 3.19531 7.41016 3.09375C7.50651 2.98958 7.58203 2.86979 7.63672 2.73438C7.69141 2.59896 7.71875 2.45573 7.71875 2.30469C7.71875 2.15625 7.6901 2.01693 7.63281 1.88672C7.57552 1.75651 7.4987 1.64323 7.40234 1.54688C7.30339 1.44792 7.1875 1.37109 7.05469 1.31641C6.92188 1.25911 6.77995 1.23047 6.62891 1.23047H5.27344C5.17969 1.23047 5.09896 1.25911 5.03125 1.31641C4.96354 1.3737 4.92969 1.45703 4.92969 1.56641C4.92969 1.61589 4.9388 1.66276 4.95703 1.70703C4.97266 1.7487 4.99609 1.78646 5.02734 1.82031C5.05599 1.85156 5.08984 1.8763 5.12891 1.89453C5.16797 1.91276 5.20964 1.92188 5.25391 1.92188H5.27344H6.625C6.68229 1.92188 6.73568 1.93359 6.78516 1.95703C6.83203 1.97786 6.8737 2.00781 6.91016 2.04688C6.94661 2.08333 6.97526 2.1263 6.99609 2.17578C7.01693 2.22266 7.02734 2.27344 7.02734 2.32812C7.02734 2.38802 7.01693 2.44271 6.99609 2.49219C6.97526 2.54167 6.94661 2.58464 6.91016 2.62109C6.87109 2.65495 6.82812 2.68229 6.78125 2.70312C6.73177 2.72396 6.67969 2.73438 6.625 2.73438H6.39844H5.83984C5.68099 2.73438 5.53385 2.76562 5.39844 2.82812C5.26302 2.88802 5.14714 2.97005 5.05078 3.07422C4.95182 3.17839 4.875 3.29948 4.82031 3.4375C4.76302 3.57552 4.73438 3.72005 4.73438 3.87109C4.73438 4.02474 4.76302 4.17057 4.82031 4.30859C4.875 4.44401 4.95182 4.5638 5.05078 4.66797C5.14974 4.76953 5.26823 4.85026 5.40625 4.91016C5.54167 4.97005 5.6888 5 5.84766 5H7.46875C7.5599 5 7.63542 4.96745 7.69531 4.90234C7.75521 4.83724 7.78516 4.7526 7.78516 4.64844C7.78516 4.54427 7.75521 4.46224 7.69531 4.40234C7.63542 4.34245 7.5599 4.3125 7.46875 4.3125H5.90625C5.84896 4.3125 5.79167 4.30339 5.73438 4.28516C5.67708 4.26432 5.625 4.23438 5.57812 4.19531C5.53125 4.15625 5.49349 4.10938 5.46484 4.05469C5.4362 3.9974 5.42188 3.93099 5.42188 3.85547C5.42188 3.78255 5.4362 3.72005 5.46484 3.66797C5.49089 3.61589 5.52734 3.57292 5.57422 3.53906C5.61849 3.50521 5.66927 3.47917 5.72656 3.46094C5.78385 3.44271 5.84245 3.43229 5.90234 3.42969H5.91016H5.92188Z" fill="#8D50FF"/>
</svg>
