<svg width="34" height="12" viewBox="0 0 34 12" fill="none" xmlns="http://www.w3.org/2000/svg">
<path d="M3.11719 7.64453H2.39062H2.05664C1.82227 7.64453 1.60547 7.59961 1.40625 7.50977C1.20703 7.41602 1.0332 7.29297 0.884766 7.14062C0.740234 6.98438 0.626953 6.80469 0.544922 6.60156C0.462891 6.39844 0.421875 6.18359 0.421875 5.95703C0.421875 5.73438 0.464844 5.52539 0.550781 5.33008C0.636719 5.13477 0.751953 4.96484 0.896484 4.82031C1.04492 4.67188 1.21875 4.55664 1.41797 4.47461C1.61719 4.38867 1.83008 4.3457 2.05664 4.3457H4.08984C4.23047 4.3457 4.35156 4.38867 4.45312 4.47461C4.55469 4.56055 4.60547 4.68555 4.60547 4.84961C4.60547 4.92383 4.5918 4.99414 4.56445 5.06055C4.54102 5.12305 4.50586 5.17969 4.45898 5.23047C4.41602 5.27734 4.36523 5.31445 4.30664 5.3418C4.24805 5.36914 4.18555 5.38281 4.11914 5.38281H4.08984H2.0625C1.97656 5.38281 1.89648 5.40039 1.82227 5.43555C1.75195 5.4668 1.68945 5.51172 1.63477 5.57031C1.58008 5.625 1.53711 5.68945 1.50586 5.76367C1.47461 5.83398 1.45898 5.91016 1.45898 5.99219C1.45898 6.08203 1.47461 6.16406 1.50586 6.23828C1.53711 6.3125 1.58008 6.37695 1.63477 6.43164C1.69336 6.48242 1.75781 6.52344 1.82812 6.55469C1.90234 6.58594 1.98047 6.60156 2.0625 6.60156H2.40234H3.24023C3.47852 6.60156 3.69922 6.64844 3.90234 6.74219C4.10547 6.83203 4.2793 6.95508 4.42383 7.11133C4.57227 7.26758 4.6875 7.44922 4.76953 7.65625C4.85547 7.86328 4.89844 8.08008 4.89844 8.30664C4.89844 8.53711 4.85547 8.75586 4.76953 8.96289C4.6875 9.16602 4.57227 9.3457 4.42383 9.50195C4.27539 9.6543 4.09766 9.77539 3.89062 9.86523C3.6875 9.95508 3.4668 10 3.22852 10H0.796875C0.660156 10 0.546875 9.95117 0.457031 9.85352C0.367188 9.75586 0.322266 9.62891 0.322266 9.47266C0.322266 9.31641 0.367188 9.19336 0.457031 9.10352C0.546875 9.01367 0.660156 8.96875 0.796875 8.96875H3.14062C3.22656 8.96875 3.3125 8.95508 3.39844 8.92773C3.48438 8.89648 3.5625 8.85156 3.63281 8.79297C3.70312 8.73438 3.75977 8.66406 3.80273 8.58203C3.8457 8.49609 3.86719 8.39648 3.86719 8.2832C3.86719 8.17383 3.8457 8.08008 3.80273 8.00195C3.76367 7.92383 3.70898 7.85938 3.63867 7.80859C3.57227 7.75781 3.49609 7.71875 3.41016 7.69141C3.32422 7.66406 3.23633 7.64844 3.14648 7.64453H3.13477H3.11719ZM8.29688 10.0703C7.90234 10.0703 7.5332 9.99609 7.18945 9.84766C6.8457 9.69531 6.54492 9.49023 6.28711 9.23242C6.0332 8.97461 5.83203 8.67188 5.68359 8.32422C5.53516 7.97656 5.46094 7.60547 5.46094 7.21094C5.46094 6.81641 5.53516 6.44531 5.68359 6.09766C5.83203 5.75 6.0332 5.44727 6.28711 5.18945C6.54492 4.92773 6.8457 4.72266 7.18945 4.57422C7.5332 4.42188 7.90234 4.3457 8.29688 4.3457C8.69141 4.3457 9.05859 4.41992 9.39844 4.56836C9.74219 4.7168 10.041 4.91992 10.2949 5.17773C10.5488 5.43164 10.75 5.73047 10.8984 6.07422C11.0469 6.41797 11.125 6.78516 11.1328 7.17578V7.21094V9.50781C11.1328 9.65625 11.082 9.7832 10.9805 9.88867C10.8789 9.99023 10.7539 10.041 10.6055 10.041C10.457 10.041 10.3359 9.99023 10.2422 9.88867C10.1484 9.7832 10.1016 9.65625 10.1016 9.50781L10.0957 9.42578C9.84961 9.62891 9.57422 9.78711 9.26953 9.90039C8.96484 10.0137 8.64062 10.0703 8.29688 10.0703ZM8.29688 9.0332C8.55469 9.0332 8.79297 8.98633 9.01172 8.89258C9.23047 8.79492 9.41992 8.66406 9.58008 8.5C9.74414 8.33203 9.87109 8.13867 9.96094 7.91992C10.0547 7.69727 10.1016 7.46094 10.1016 7.21094C10.1016 6.96094 10.0547 6.72656 9.96094 6.50781C9.87109 6.28516 9.74414 6.0918 9.58008 5.92773C9.41992 5.76367 9.23047 5.63477 9.01172 5.54102C8.79297 5.44336 8.55469 5.39453 8.29688 5.39453C8.04297 5.39453 7.80664 5.44336 7.58789 5.54102C7.36914 5.63477 7.17969 5.76367 7.01953 5.92773C6.85938 6.0918 6.73242 6.28516 6.63867 6.50781C6.54492 6.72656 6.49805 6.96094 6.49805 7.21094C6.49805 7.46094 6.54492 7.69727 6.63867 7.91992C6.73242 8.13867 6.85938 8.33203 7.01953 8.5C7.17969 8.66406 7.36914 8.79492 7.58789 8.89258C7.80664 8.98633 8.04297 9.0332 8.29688 9.0332ZM12.2344 6.34961V6.27344C12.2344 6.00781 12.2852 5.75781 12.3867 5.52344C12.4883 5.28906 12.625 5.08594 12.7969 4.91406C12.9727 4.73828 13.1758 4.59961 13.4062 4.49805C13.6406 4.39648 13.8906 4.3457 14.1562 4.3457C14.4375 4.3457 14.6973 4.40234 14.9355 4.51562C15.1777 4.625 15.3887 4.77539 15.5684 4.9668C15.7441 4.77539 15.9512 4.625 16.1895 4.51562C16.4316 4.40234 16.6934 4.3457 16.9746 4.3457C17.2402 4.3457 17.4922 4.39648 17.7305 4.49805C17.9688 4.59961 18.1758 4.73828 18.3516 4.91406C18.5312 5.08594 18.6738 5.28906 18.7793 5.52344C18.8848 5.75781 18.9375 6.00781 18.9375 6.27344V9.48438C18.9375 9.63281 18.8867 9.75586 18.7852 9.85352C18.6836 9.95117 18.5625 10 18.4219 10C18.2773 10 18.1543 9.95117 18.0527 9.85352C17.9551 9.75586 17.9062 9.63281 17.9062 9.48438V6.33203C17.9062 6.20703 17.8809 6.08984 17.8301 5.98047C17.7832 5.86719 17.7168 5.76953 17.6309 5.6875C17.5488 5.60156 17.4512 5.53516 17.3379 5.48828C17.2246 5.4375 17.1055 5.41211 16.9805 5.41211C16.8633 5.41211 16.752 5.43359 16.6465 5.47656C16.5449 5.51953 16.4531 5.58008 16.3711 5.6582C16.293 5.73242 16.2285 5.82031 16.1777 5.92188C16.1309 6.02344 16.1035 6.13086 16.0957 6.24414C16.0996 6.25586 16.1016 6.2793 16.1016 6.31445V7.50977C16.1016 7.58398 16.0879 7.65234 16.0605 7.71484C16.0332 7.77734 15.9961 7.83203 15.9492 7.87891C15.9023 7.92578 15.8477 7.96289 15.7852 7.99023C15.7227 8.01758 15.6562 8.03125 15.5859 8.03125C15.4414 8.03125 15.3184 7.98242 15.2168 7.88477C15.1191 7.7832 15.0703 7.6582 15.0703 7.50977V6.33789C15.0703 6.20898 15.0469 6.08984 15 5.98047C14.9531 5.86719 14.8887 5.76758 14.8066 5.68164C14.7285 5.5957 14.6348 5.5293 14.5254 5.48242C14.416 5.43164 14.2988 5.40625 14.1738 5.40625C14.0566 5.40625 13.9473 5.42773 13.8457 5.4707C13.7441 5.50977 13.6523 5.56445 13.5703 5.63477C13.4922 5.70508 13.4258 5.78906 13.3711 5.88672C13.3203 5.98047 13.2871 6.08203 13.2715 6.19141C13.2754 6.21094 13.2773 6.22852 13.2773 6.24414C13.2812 6.25586 13.2832 6.27148 13.2832 6.29102L13.2656 9.48438C13.2656 9.63281 13.2148 9.75586 13.1133 9.85352C13.0117 9.95117 12.8926 10 12.7559 10C12.6113 10 12.4883 9.95117 12.3867 9.85352C12.2852 9.75586 12.2344 9.63281 12.2344 9.48438V6.34961ZM19.9395 3.06836C19.9395 2.98633 19.9551 2.91016 19.9863 2.83984C20.0176 2.76953 20.0586 2.70898 20.1094 2.6582C20.1641 2.60352 20.2266 2.56055 20.2969 2.5293C20.3711 2.49805 20.4492 2.48242 20.5312 2.48242C20.6133 2.48242 20.6895 2.49805 20.7598 2.5293C20.8301 2.56055 20.8926 2.60352 20.9473 2.6582C21.002 2.70898 21.0449 2.76953 21.0762 2.83984C21.1074 2.91016 21.123 2.98633 21.123 3.06836C21.123 3.15039 21.1074 3.22656 21.0762 3.29688C21.0449 3.36719 21.002 3.42969 20.9473 3.48438C20.8926 3.53516 20.8301 3.57617 20.7598 3.60742C20.6895 3.63867 20.6133 3.6543 20.5312 3.6543C20.4492 3.6543 20.3711 3.63867 20.2969 3.60742C20.2266 3.57617 20.1641 3.53516 20.1094 3.48438C20.0586 3.42969 20.0176 3.36719 19.9863 3.29688C19.9551 3.22656 19.9395 3.15039 19.9395 3.06836ZM20.0039 4.86719C20.0039 4.79688 20.0176 4.73047 20.0449 4.66797C20.0723 4.60156 20.1094 4.54492 20.1562 4.49805C20.207 4.45117 20.2637 4.41406 20.3262 4.38672C20.3926 4.35938 20.4629 4.3457 20.5371 4.3457C20.6816 4.3457 20.8008 4.39648 20.8945 4.49805C20.9922 4.59961 21.041 4.72266 21.041 4.86719V9.52539C21.041 9.66992 20.9902 9.79297 20.8887 9.89453C20.791 9.99219 20.6719 10.041 20.5312 10.041C20.3867 10.041 20.2617 9.99219 20.1562 9.89453C20.0547 9.79297 20.0039 9.66992 20.0039 9.52539V4.86719ZM22.1777 7.33984C22.1777 6.92969 22.2559 6.54297 22.4121 6.17969C22.5684 5.81641 22.7812 5.5 23.0508 5.23047C23.3203 4.95703 23.6348 4.74219 23.9941 4.58594C24.3574 4.42578 24.7441 4.3457 25.1543 4.3457H25.1836C25.3594 4.3457 25.4922 4.39453 25.582 4.49219C25.6758 4.58984 25.7227 4.71289 25.7227 4.86133C25.7227 5.00977 25.6699 5.13281 25.5645 5.23047C25.459 5.32812 25.332 5.37695 25.1836 5.37695H25.1543C24.8887 5.37695 24.6387 5.42969 24.4043 5.53516C24.1699 5.63672 23.9629 5.77734 23.7832 5.95703C23.6074 6.13281 23.4668 6.33984 23.3613 6.57812C23.2598 6.81641 23.209 7.07031 23.209 7.33984V9.48438C23.209 9.63281 23.1602 9.75586 23.0625 9.85352C22.9688 9.95117 22.8516 10 22.7109 10C22.6406 10 22.5723 9.98828 22.5059 9.96484C22.4434 9.9375 22.3867 9.90039 22.3359 9.85352C22.2891 9.80664 22.25 9.75195 22.2188 9.68945C22.1914 9.62695 22.1777 9.55859 22.1777 9.48438V7.33984ZM28.6992 10.0703C28.3047 10.0703 27.9355 9.99609 27.5918 9.84766C27.248 9.69531 26.9473 9.49023 26.6895 9.23242C26.4355 8.97461 26.2344 8.67188 26.0859 8.32422C25.9375 7.97656 25.8633 7.60547 25.8633 7.21094C25.8633 6.81641 25.9375 6.44531 26.0859 6.09766C26.2344 5.75 26.4355 5.44727 26.6895 5.18945C26.9473 4.92773 27.248 4.72266 27.5918 4.57422C27.9355 4.42188 28.3047 4.3457 28.6992 4.3457C29.0938 4.3457 29.4609 4.41992 29.8008 4.56836C30.1445 4.7168 30.4434 4.91992 30.6973 5.17773C30.9512 5.43164 31.1523 5.73047 31.3008 6.07422C31.4492 6.41797 31.5273 6.78516 31.5352 7.17578V7.21094V9.50781C31.5352 9.65625 31.4844 9.7832 31.3828 9.88867C31.2812 9.99023 31.1562 10.041 31.0078 10.041C30.8594 10.041 30.7383 9.99023 30.6445 9.88867C30.5508 9.7832 30.5039 9.65625 30.5039 9.50781L30.498 9.42578C30.252 9.62891 29.9766 9.78711 29.6719 9.90039C29.3672 10.0137 29.043 10.0703 28.6992 10.0703ZM28.6992 9.0332C28.957 9.0332 29.1953 8.98633 29.4141 8.89258C29.6328 8.79492 29.8223 8.66406 29.9824 8.5C30.1465 8.33203 30.2734 8.13867 30.3633 7.91992C30.457 7.69727 30.5039 7.46094 30.5039 7.21094C30.5039 6.96094 30.457 6.72656 30.3633 6.50781C30.2734 6.28516 30.1465 6.0918 29.9824 5.92773C29.8223 5.76367 29.6328 5.63477 29.4141 5.54102C29.1953 5.44336 28.957 5.39453 28.6992 5.39453C28.4453 5.39453 28.209 5.44336 27.9902 5.54102C27.7715 5.63477 27.582 5.76367 27.4219 5.92773C27.2617 6.0918 27.1348 6.28516 27.041 6.50781C26.9473 6.72656 26.9004 6.96094 26.9004 7.21094C26.9004 7.46094 26.9473 7.69727 27.041 7.91992C27.1348 8.13867 27.2617 8.33203 27.4219 8.5C27.582 8.66406 27.7715 8.79492 27.9902 8.89258C28.209 8.98633 28.4453 9.0332 28.6992 9.0332Z" fill="white"/>
<path d="M31.9219 3.42969H32.4062H32.6289C32.7852 3.42969 32.9297 3.39974 33.0625 3.33984C33.1953 3.27734 33.3112 3.19531 33.4102 3.09375C33.5065 2.98958 33.582 2.86979 33.6367 2.73438C33.6914 2.59896 33.7188 2.45573 33.7188 2.30469C33.7188 2.15625 33.6901 2.01693 33.6328 1.88672C33.5755 1.75651 33.4987 1.64323 33.4023 1.54688C33.3034 1.44792 33.1875 1.37109 33.0547 1.31641C32.9219 1.25911 32.7799 1.23047 32.6289 1.23047H31.2734C31.1797 1.23047 31.099 1.25911 31.0312 1.31641C30.9635 1.3737 30.9297 1.45703 30.9297 1.56641C30.9297 1.61589 30.9388 1.66276 30.957 1.70703C30.9727 1.7487 30.9961 1.78646 31.0273 1.82031C31.056 1.85156 31.0898 1.8763 31.1289 1.89453C31.168 1.91276 31.2096 1.92188 31.2539 1.92188H31.2734H32.625C32.6823 1.92188 32.7357 1.93359 32.7852 1.95703C32.832 1.97786 32.8737 2.00781 32.9102 2.04688C32.9466 2.08333 32.9753 2.1263 32.9961 2.17578C33.0169 2.22266 33.0273 2.27344 33.0273 2.32812C33.0273 2.38802 33.0169 2.44271 32.9961 2.49219C32.9753 2.54167 32.9466 2.58464 32.9102 2.62109C32.8711 2.65495 32.8281 2.68229 32.7812 2.70312C32.7318 2.72396 32.6797 2.73438 32.625 2.73438H32.3984H31.8398C31.681 2.73438 31.5339 2.76562 31.3984 2.82812C31.263 2.88802 31.1471 2.97005 31.0508 3.07422C30.9518 3.17839 30.875 3.29948 30.8203 3.4375C30.763 3.57552 30.7344 3.72005 30.7344 3.87109C30.7344 4.02474 30.763 4.17057 30.8203 4.30859C30.875 4.44401 30.9518 4.5638 31.0508 4.66797C31.1497 4.76953 31.2682 4.85026 31.4062 4.91016C31.5417 4.97005 31.6888 5 31.8477 5H33.4688C33.5599 5 33.6354 4.96745 33.6953 4.90234C33.7552 4.83724 33.7852 4.7526 33.7852 4.64844C33.7852 4.54427 33.7552 4.46224 33.6953 4.40234C33.6354 4.34245 33.5599 4.3125 33.4688 4.3125H31.9062C31.849 4.3125 31.7917 4.30339 31.7344 4.28516C31.6771 4.26432 31.625 4.23438 31.5781 4.19531C31.5312 4.15625 31.4935 4.10938 31.4648 4.05469C31.4362 3.9974 31.4219 3.93099 31.4219 3.85547C31.4219 3.78255 31.4362 3.72005 31.4648 3.66797C31.4909 3.61589 31.5273 3.57292 31.5742 3.53906C31.6185 3.50521 31.6693 3.47917 31.7266 3.46094C31.7839 3.44271 31.8424 3.43229 31.9023 3.42969H31.9102H31.9219Z" fill="#8D50FF"/>
</svg>
